# Blender 4.4.3
# www.blender.org
mtllib ChristmasTree.mtl
o Tree
v 18.168098 0.679620 -2.990261
v 18.467871 7.205978 -2.323971
v 18.541082 0.679620 -2.854506
v 18.628273 7.205978 -2.047373
v 18.739542 0.679620 -2.510763
v 18.573353 7.205978 -1.732383
v 18.670618 0.679621 -2.119873
v 18.328812 7.205978 -1.526387
v 18.366558 0.679621 -1.864737
v 18.009069 7.205978 -1.525774
v 17.969639 0.679621 -1.864737
v 17.763739 7.205978 -1.730830
v 17.665579 0.679621 -2.119873
v 17.707613 7.205978 -2.045608
v 17.596655 0.679620 -2.510763
v 17.866953 7.205978 -2.322819
v 17.795115 0.679620 -2.854506
v 18.167202 7.205978 -2.432753
v 18.168097 15.249282 -1.965323
v 17.605898 -0.409349 -4.682144
v 18.667889 -0.409349 -3.017541
v 20.682358 -0.650074 -2.698674
v 18.959387 -0.409348 -2.119873
v 18.366558 -0.409348 -0.030572
v 17.969639 -0.409348 -1.645483
v 15.621645 -0.592112 -1.117618
v 17.404047 -0.409349 -2.642203
v 17.521975 -0.409349 -2.985947
v 18.846516 -0.192205 -2.573492
v 18.611437 -0.192205 -2.950657
v 18.164892 -0.192205 -3.565991
v 17.652546 -0.192205 -2.919062
v 17.482418 -0.192205 -2.624390
v 17.290129 -0.192205 -2.016136
v 17.994762 -0.192205 -1.719892
v 18.335022 -0.192205 -1.152982
v 18.779226 -0.192205 -2.157860
v 16.732491 -0.246179 -2.036911
v 16.683901 -0.409348 -2.442815
v 16.819887 -0.409348 -1.784397
v 20.768410 5.164830 -2.547863
v 16.289175 6.096023 -1.522645
v 20.044788 7.939900 -8.229971
v 15.565554 8.871092 -7.204753
v 20.406599 6.552365 -5.388917
v 15.927364 7.483558 -4.363699
v 18.260443 5.686214 -1.973833
v 17.536819 8.461283 -7.655942
v 17.512682 5.831236 -5.372564
v 15.646891 5.661920 -4.748131
v 20.747715 6.449895 -1.152256
v 10.778877 8.991699 1.427584
v 15.879702 9.779675 5.023459
v 13.212884 7.326809 -1.660274
v 18.313709 8.114784 1.935601
v 18.502893 6.103115 -2.734765
v 13.634879 9.432894 3.440950
v 15.817608 6.035363 1.089216
v 16.612129 7.651827 1.470876
v 18.005594 8.516014 -5.230289
v 24.949787 11.303665 3.675581
v 26.343250 12.167851 -3.025583
v 20.780958 9.477746 2.573228
v 22.174423 10.341933 -4.127936
v 17.392344 8.135694 -2.281173
v 25.730000 11.787532 -0.076467
v 22.411501 8.061389 -1.247054
v 16.726711 10.596670 1.630271
v 18.003254 11.315287 -5.111256
v 23.375561 16.903507 3.561545
v 24.652103 17.622122 -3.179982
v 20.051134 13.750088 2.595908
v 21.327677 14.468703 -4.145619
v 17.441460 10.999030 -2.144376
v 24.090309 17.305866 -0.213103
v 22.181297 12.627969 -1.073226
v 20.983644 8.905327 -3.724073
v 16.600584 9.515600 0.115342
v 17.548981 14.261301 -8.496401
v 13.165922 14.871575 -4.656985
v 19.266312 11.583313 -6.110237
v 14.883253 12.193587 -2.270822
v 18.529526 9.247025 -1.574347
v 15.094863 14.602999 -6.346674
v 15.921015 10.630375 -4.772095
v 15.142474 8.604081 -2.934324
v 20.590778 9.178588 -2.297738
v 13.978523 13.646160 2.477110
v 19.426828 14.220668 3.113697
v 14.560499 11.125120 -0.228607
v 20.008804 11.699627 0.407979
v 18.193033 8.925754 -2.577893
v 17.029083 13.967833 2.833541
v 17.606993 10.228030 1.262526
v 12.248220 8.428688 -1.940097
v 22.831768 8.530911 -1.956107
v 12.144837 19.135027 -1.922753
v 22.728384 19.237249 -1.938762
v 18.497940 8.428689 4.325129
v 18.481930 8.530910 -6.258417
v 18.515285 19.135029 4.428510
v 18.499275 19.237249 -6.155036
v 14.266122 7.897452 -1.187312
v 21.037292 6.859766 -2.836486
v 16.224657 12.201834 4.145645
v 22.995827 11.164147 2.496471
v 20.986488 7.897452 1.072734
v 16.334681 6.859765 -4.116603
v 24.762028 12.201835 -3.172451
v 20.110222 11.164147 -8.361788
v 20.850491 6.434663 -5.321804
v 16.685619 5.396978 0.265895
v 15.941454 10.739048 -8.181462
v 11.776583 9.701362 -2.593764
v 20.557858 4.356257 -4.050140
v 15.454998 4.603145 -1.991256
v 23.320471 6.592102 2.528777
v 18.217611 6.838990 4.587661
v 21.939165 5.474180 -0.760682
v 16.836304 5.721067 1.298202
v 17.700716 4.494493 -2.897351
v 20.463329 6.730337 3.681567
v 18.961735 7.197601 -0.096107
v 16.855043 5.900134 -4.444271
v 17.888687 5.956466 0.027757
v 22.884764 6.612127 -5.846920
v 23.918407 6.668459 -1.374891
v 19.869904 6.256131 -5.145596
v 20.903545 6.312462 -0.673567
v 17.433790 5.931674 -1.940338
v 23.463511 6.643668 -3.342987
v 20.290552 7.664400 -2.622462
v 19.209696 3.804991 -4.649670
v 18.176384 4.215908 -0.094985
v 13.222285 5.359391 -6.148257
v 12.188973 5.770307 -1.593572
v 16.215990 4.582191 -5.398963
v 15.182679 4.993107 -0.844278
v 18.631134 4.035067 -2.099457
v 12.643723 5.589467 -3.598044
v 15.272380 3.445191 -2.808233
v 16.011538 2.766781 -4.500038
v 19.303305 3.425464 -0.133170
v 21.862766 3.727464 -9.055628
v 25.154533 4.386147 -4.688760
v 18.937151 3.247123 -6.777833
v 22.228918 3.905806 -2.410964
v 17.854630 3.135584 -2.054985
v 23.705858 4.096268 -6.610575
v 20.489693 5.253130 -4.360712
v 15.114132 4.117978 -2.168909
v 20.421558 3.627252 -3.557989
v 17.104683 7.189694 4.351478
v 22.412109 6.698968 2.962398
v 16.109407 5.653836 1.091284
v 21.416834 5.163111 -0.297796
v 18.085812 3.843216 -2.946669
v 20.076365 6.914932 3.573718
v 19.124176 3.870107 1.011236
v 20.768410 5.164830 -2.547863
v 16.289175 6.096023 -1.522645
v 20.044788 7.939900 -8.229971
v 15.565554 8.871092 -7.204753
v 20.406599 6.552365 -5.388917
v 15.927364 7.483558 -4.363699
v 18.260443 5.686214 -1.973833
v 17.536819 8.461283 -7.655942
v 17.512682 5.831236 -5.372564
v 15.646891 5.661920 -4.748131
v 20.747715 6.449895 -1.152256
v 10.778877 8.991699 1.427584
v 15.879702 9.779675 5.023459
v 13.212884 7.326809 -1.660274
v 18.313709 8.114784 1.935601
v 18.502893 6.103115 -2.734765
v 13.634879 9.432894 3.440950
v 15.817608 6.035363 1.089216
v 16.612129 7.651827 1.470876
v 18.005594 8.516014 -5.230289
v 24.949787 11.303665 3.675581
v 26.343250 12.167851 -3.025583
v 20.780958 9.477746 2.573228
v 22.174423 10.341933 -4.127936
v 17.392344 8.135694 -2.281173
v 25.730000 11.787532 -0.076467
v 22.411501 8.061389 -1.247054
v 16.726711 10.596670 1.630271
v 18.003254 11.315287 -5.111256
v 23.375561 16.903507 3.561545
v 24.652103 17.622122 -3.179982
v 20.051134 13.750088 2.595908
v 21.327677 14.468703 -4.145619
v 17.441460 10.999030 -2.144376
v 24.090309 17.305866 -0.213103
v 22.181297 12.627969 -1.073226
v 20.983644 8.905327 -3.724073
v 16.600584 9.515600 0.115342
v 17.548981 14.261301 -8.496401
v 13.165922 14.871575 -4.656985
v 19.266312 11.583313 -6.110237
v 14.883253 12.193587 -2.270822
v 18.529526 9.247025 -1.574347
v 15.094863 14.602999 -6.346674
v 15.921015 10.630375 -4.772095
v 15.142474 8.604081 -2.934324
v 20.590778 9.178588 -2.297738
v 13.978523 13.646160 2.477110
v 19.426828 14.220668 3.113697
v 14.560499 11.125120 -0.228607
v 20.008804 11.699627 0.407979
v 18.193033 8.925754 -2.577893
v 17.029083 13.967833 2.833541
v 17.606993 10.228030 1.262526
v 12.248220 8.428688 -1.940097
v 22.831768 8.530911 -1.956107
v 12.144837 19.135027 -1.922753
v 22.728384 19.237249 -1.938762
v 18.497940 8.428689 4.325129
v 18.481930 8.530910 -6.258417
v 18.515285 19.135029 4.428510
v 18.499275 19.237249 -6.155036
v 14.266122 7.897452 -1.187312
v 21.037292 6.859766 -2.836486
v 16.224657 12.201834 4.145645
v 22.995827 11.164147 2.496471
v 20.986488 7.897452 1.072734
v 16.334681 6.859765 -4.116603
v 24.762028 12.201835 -3.172451
v 20.110222 11.164147 -8.361788
v 20.850491 6.434663 -5.321804
v 16.685619 5.396978 0.265895
v 15.941454 10.739048 -8.181462
v 11.776583 9.701362 -2.593764
v 20.557858 4.356257 -4.050140
v 15.454998 4.603145 -1.991256
v 23.320471 6.592102 2.528777
v 18.217611 6.838990 4.587661
v 21.939165 5.474180 -0.760682
v 16.836304 5.721067 1.298202
v 17.700716 4.494493 -2.897351
v 20.463329 6.730337 3.681567
v 18.961735 7.197601 -0.096107
v 16.855043 5.900134 -4.444271
v 17.888687 5.956466 0.027757
v 22.884764 6.612127 -5.846920
v 23.918407 6.668459 -1.374891
v 19.869904 6.256131 -5.145596
v 20.903545 6.312462 -0.673567
v 17.433790 5.931674 -1.940338
v 23.463511 6.643668 -3.342987
v 20.290552 7.664400 -2.622462
v 19.209696 3.804991 -4.649670
v 18.176384 4.215908 -0.094985
v 13.222285 5.359391 -6.148257
v 12.188973 5.770307 -1.593572
v 16.215990 4.582191 -5.398963
v 15.182679 4.993107 -0.844278
v 18.631134 4.035067 -2.099457
v 12.643723 5.589467 -3.598044
v 15.272380 3.445191 -2.808233
v 16.011538 2.766781 -4.500038
v 19.303305 3.425464 -0.133170
v 21.862766 3.727464 -9.055628
v 25.154533 4.386147 -4.688760
v 18.937151 3.247123 -6.777833
v 22.228918 3.905806 -2.410964
v 17.854630 3.135584 -2.054985
v 23.705858 4.096268 -6.610575
v 20.489693 5.253130 -4.360712
v 15.114132 4.117978 -2.168909
v 20.421558 3.627252 -3.557989
v 17.104683 7.189694 4.351478
v 22.412109 6.698968 2.962398
v 16.109407 5.653836 1.091284
v 21.416834 5.163111 -0.297796
v 18.085812 3.843216 -2.946669
v 20.076365 6.914932 3.573718
v 19.124176 3.870107 1.011236
vn 0.1608 0.2400 -0.9574
vn 0.4882 0.0716 -0.8698
vn 0.9352 0.0565 -0.3497
vn 0.7975 0.1409 -0.5866
vn 0.9421 0.0333 0.3335
vn 0.9968 0.0724 -0.0350
vn 0.5104 0.0129 0.8598
vn 0.8340 0.0786 0.5462
vn -0.1568 0.0043 0.9876
vn 0.1845 0.1663 0.9687
vn -0.7519 0.0114 0.6591
vn -0.5693 0.1349 0.8110
vn -0.9992 0.0313 0.0236
vn -0.9262 0.1468 0.3474
vn -0.7788 0.0550 -0.6248
vn -0.9121 0.1450 -0.3835
vn -0.1903 0.0711 -0.9792
vn 0.0001 1.0000 -0.0001
vn -0.5913 0.1764 -0.7869
vn 0.6522 0.4729 -0.5924
vn 0.7127 0.6782 -0.1790
vn 0.9652 -0.1589 -0.2079
vn 0.6853 0.0263 -0.7278
vn -0.3302 -0.1155 -0.9368
vn 0.7089 0.4916 0.5058
vn -0.0633 -0.3076 0.9494
vn -0.7027 0.2039 0.6816
vn 0.0778 -0.3494 0.9338
vn -0.6507 -0.1781 -0.7381
vn -0.8139 0.1042 -0.5716
vn -0.8988 -0.3938 -0.1924
vn -0.7775 0.4629 -0.4258
vn 0.3366 0.7346 -0.5891
vn -0.7867 0.4925 -0.3721
vn -0.4987 0.7773 0.3835
vn -0.2670 0.9623 0.0513
vn -0.5030 0.5210 0.6896
vn -0.0236 0.8814 0.4718
vn 0.7510 0.5728 0.3285
vn -0.7561 -0.1595 0.6348
vn -0.5791 -0.6597 -0.4790
vn -0.5323 -0.8392 -0.1115
vn 0.0096 -0.9707 -0.2401
vn -0.0381 -0.7876 -0.6150
vn 0.0176 -0.7244 0.6892
vn 0.2524 -0.8849 0.3914
vn -0.2116 -0.9749 0.0686
vn -0.4510 -0.8112 0.3722
vn 0.6253 -0.7244 -0.2903
vn 0.2587 -0.8849 -0.3872
vn 0.1471 -0.9749 0.1669
vn 0.5209 -0.8112 0.2657
vn 0.8339 -0.5058 -0.2209
vn 0.5416 -0.7830 -0.3058
vn 0.4453 -0.8588 0.2532
vn 0.7434 -0.5760 0.3398
vn -0.7928 -0.5058 -0.3401
vn -0.6150 -0.7830 -0.0931
vn -0.1945 -0.8588 -0.4739
vn -0.3758 -0.5760 -0.7259
vn 0.2794 -0.5058 0.8162
vn 0.3434 -0.7830 0.5186
vn -0.2211 -0.8588 0.4621
vn -0.2864 -0.5760 0.7656
vn 0.0015 -0.0016 1.0000
vn 1.0000 -0.0016 -0.0015
vn 0.0312 -0.7833 0.6208
vn 0.5325 -0.7833 -0.3207
vn -0.4198 -0.7833 -0.4584
vn -0.2851 0.9581 0.0281
vn -0.4372 0.8350 -0.3342
vn 0.0899 0.8256 -0.5570
vn 0.2451 0.9512 -0.1875
vn 0.1651 0.9469 0.2758
vn -0.2333 0.8999 0.3685
vn -0.3682 0.9106 -0.1876
vn 0.0381 0.9586 -0.2821
vn -0.5023 -0.8158 0.2865
vn -0.1150 -0.9164 0.3834
vn 0.0102 -0.9853 -0.1708
vn -0.3848 -0.8827 -0.2697
vn 0.1891 0.9757 0.1108
vn -0.1331 0.9228 0.3616
vn -0.4813 0.8719 -0.0897
vn -0.1527 0.9259 -0.3455
vn 0.3847 -0.7836 0.4878
vn 0.2751 -0.9527 0.1288
vn -0.2767 -0.9201 0.2772
vn -0.1649 -0.7476 0.6433
vn 0.5791 0.6597 0.4790
vn 0.5323 0.8392 0.1115
vn -0.0096 0.9707 0.2401
vn 0.0381 0.7876 0.6150
vn -0.0176 0.7244 -0.6892
vn -0.2524 0.8849 -0.3914
vn 0.2116 0.9749 -0.0686
vn 0.4510 0.8112 -0.3722
vn -0.6253 0.7244 0.2903
vn -0.2587 0.8849 0.3872
vn -0.1471 0.9749 -0.1669
vn -0.5209 0.8112 -0.2657
vn -0.8339 0.5058 0.2209
vn -0.5416 0.7830 0.3058
vn -0.4453 0.8588 -0.2532
vn -0.7434 0.5760 -0.3398
vn 0.7928 0.5058 0.3401
vn 0.6150 0.7830 0.0931
vn 0.1945 0.8588 0.4739
vn 0.3758 0.5760 0.7259
vn -0.2794 0.5058 -0.8162
vn -0.3434 0.7830 -0.5186
vn 0.2211 0.8588 -0.4621
vn 0.2864 0.5760 -0.7656
vn -0.0015 0.0016 -1.0000
vn -1.0000 0.0016 0.0015
vn -0.0312 0.7833 -0.6208
vn -0.5325 0.7833 0.3207
vn 0.4198 0.7833 0.4584
vn 0.2851 -0.9581 -0.0281
vn 0.4372 -0.8350 0.3342
vn -0.0899 -0.8256 0.5570
vn -0.2451 -0.9512 0.1875
vn -0.1651 -0.9469 -0.2758
vn 0.2333 -0.8999 -0.3685
vn 0.3682 -0.9106 0.1876
vn -0.0381 -0.9586 0.2821
vn 0.5023 0.8158 -0.2865
vn 0.1150 0.9164 -0.3834
vn -0.0102 0.9853 0.1708
vn 0.3848 0.8827 0.2697
vn -0.1891 -0.9757 -0.1108
vn 0.1331 -0.9228 -0.3616
vn 0.4813 -0.8719 0.0897
vn 0.1527 -0.9259 0.3455
vn -0.3847 0.7836 -0.4878
vn -0.2751 0.9527 -0.1288
vn 0.2767 0.9201 -0.2772
vn 0.1649 0.7476 -0.6433
vt 0.504405 -1.656809
vt 0.637260 1.235572
vt 0.708347 1.235572
vt 0.669705 -1.656809
vt 0.701402 -1.656809
vt 0.343693 1.235572
vt 0.204094 1.235572
vt 0.549061 -1.656809
vt 0.112800 1.235572
vt 0.375824 -1.656809
vt 0.727114 -1.656809
vt 0.575630 1.235572
vt 0.433926 1.235572
vt 0.592360 -1.656809
vt 0.325199 1.235572
vt 0.416450 -1.656809
vt 0.262752 -1.656809
vt 0.203406 1.235572
vt 0.342911 1.235572
vt 0.465766 1.235572
vt 0.504008 1.235572
vt 0.504405 4.800241
vt 0.251150 -1.656809
vt 0.370942 1.235572
vt 0.339105 -1.656809
vt 1.323681 -1.407776
vt 1.157758 -1.513907
vt 1.222748 -2.326819
vt 1.353614 -1.432446
vt 0.307329 4.800241
vt 0.466277 1.235572
vt 0.684008 1.235572
vt 0.255246 -0.931981
vt 0.725904 -1.669708
vt 1.618686 -1.811025
vt 0.855092 -2.067540
vt 0.592360 -2.993486
vt 0.416450 -2.277783
vt -0.093085 -2.216213
vt -0.153343 -1.924409
vt 0.165790 -1.836051
vt 0.218053 -1.683710
vt 0.275920 -1.713353
vt 0.502984 -1.426643
vt 0.599418 -2.043189
vt 0.730013 -2.043189
vt 0.759654 -2.139424
vt 0.607313 -2.139424
vt -0.011272 -1.855066
vt -0.266652 -1.733776
vt -0.279223 -1.767102
vt -0.221572 -2.086184
vt -0.042598 -2.090884
vt 0.161498 -1.563676
vt -0.045750 -2.101176
vt 0.070488 -2.078130
vt 0.192643 -1.579217
vt -0.052687 -2.043189
vt 0.198559 -2.043189
vt 0.165582 -2.139424
vt -0.550122 -2.139424
vt 0.775247 -2.050705
vt 0.578382 -2.496051
vt 1.016721 -2.043189
vt 0.744015 -2.043189
vt 0.773657 -2.139424
vt 1.511383 -2.139424
vt 0.973220 -1.486241
vt 0.957320 -1.566278
vt 0.392660 -2.043189
vt 0.576861 -2.043189
vt 0.700885 -2.043189
vt 0.502984 -2.043189
vt 0.427585 -2.043189
vt 0.578382 -2.043189
vt 0.281696 -1.656809
vt 0.115303 -2.043189
vt 0.329850 -2.043189
vt 0.275920 -2.043189
vt 0.070976 -2.077453
vt -0.045181 -2.100515
vt 0.230121 -2.634541
vt -0.045763 -2.095651
vt -0.226908 -2.092377
vt 0.216350 -2.671119
vt -0.153368 -1.924417
vt -0.093101 -2.216218
vt -0.624144 -2.511724
vt 0.559910 0.500000
vt 1.000000 0.500000
vt 1.000000 1.000000
vt 0.559910 1.000000
vt 0.559910 0.000000
vt 1.000000 0.000000
vt 0.000000 0.000000
vt 0.000000 0.500000
vt 0.000000 1.000000
vt 0.000000 0.254832
vt 1.000000 0.254832
s 1
usemtl Wood_5
f 1/1/1 2/2/2 4/3/3 3/4/4
f 3/5/4 4/6/3 6/7/5 5/8/6
f 5/8/6 6/7/5 8/9/7 7/10/8
f 7/11/8 8/12/7 10/13/9 9/14/10
f 9/14/10 10/13/9 12/15/11 11/16/12
f 11/17/12 12/18/11 14/19/13 13/10/14
f 13/10/14 14/19/13 16/20/15 15/8/16
f 2/2/2 18/21/17 19/22/18
f 15/23/16 16/24/15 18/21/17 17/25/19
f 17/25/19 18/21/17 2/2/2 1/1/1
f 30/26/20 29/27/21 22/28/22 21/29/23
f 18/21/17 16/24/15 19/22/18
f 16/20/15 14/19/13 19/30/18
f 14/19/13 12/18/11 19/30/18
f 12/15/11 10/13/9 19/22/18
f 10/13/9 8/12/7 19/22/18
f 4/6/3 2/31/2 19/30/18
f 8/12/7 6/32/5 19/22/18
f 6/7/5 4/6/3 19/30/18
f 20/33/24 21/34/23 22/35/22 23/36/25 24/37/26 25/38/27 40/39/28 39/40/29 27/41/30 28/42/31
f 32/43/32 31/44/33 20/33/24
f 33/45/34 32/46/32 28/47/31 27/48/30
f 34/49/35 33/50/34 27/51/30 39/52/29 38/53/36
f 35/54/37 34/49/35 38/55/36 40/56/28 25/57/27
f 36/58/38 35/59/37 25/60/27 24/61/26
f 37/62/39 36/63/38 24/37/26 23/36/25
f 31/64/33 30/65/20 21/66/23 20/67/24
f 29/27/21 37/68/39 23/69/25 22/28/22
f 5/8/6 7/10/8 37/70/39 29/71/21
f 1/1/1 3/4/4 30/72/20 31/73/33
f 7/10/8 9/17/10 36/58/38 37/70/39
f 9/14/10 11/16/12 35/74/37 36/75/38
f 11/16/12 13/76/14 34/77/35 35/74/37
f 13/10/14 15/8/16 33/45/34 34/78/35
f 15/8/16 17/5/19 32/46/32 33/45/34
f 17/25/19 1/1/1 31/73/33 32/79/32
f 3/5/4 5/8/6 29/71/21 30/65/20
f 20/67/24 28/47/31 32/46/32
f 40/80/28 38/81/36 26/82/40
f 38/83/36 39/84/29 26/85/40
f 39/86/29 40/87/28 26/88/40
usemtl Branch_6
f 49/89/41 46/90/41 44/91/41 48/92/41
f 47/93/42 42/94/42 46/90/42 49/89/42
f 41/95/43 47/93/43 49/89/43 45/96/43
f 45/96/44 49/89/44 48/92/44 43/97/44
f 58/89/45 55/90/45 53/91/45 57/92/45
f 56/93/46 51/94/46 55/90/46 58/89/46
f 50/95/47 56/93/47 58/89/47 54/96/47
f 54/96/48 58/89/48 57/92/48 52/97/48
f 67/89/49 64/90/49 62/91/49 66/92/49
f 65/93/50 60/94/50 64/90/50 67/89/50
f 59/95/51 65/93/51 67/89/51 63/96/51
f 63/96/52 67/89/52 66/92/52 61/97/52
f 76/89/53 73/90/53 71/91/53 75/92/53
f 74/93/54 69/94/54 73/90/54 76/89/54
f 68/95/55 74/93/55 76/89/55 72/96/55
f 72/96/56 76/89/56 75/92/56 70/97/56
f 85/89/57 82/90/57 80/91/57 84/92/57
f 83/93/58 78/94/58 82/90/58 85/89/58
f 77/95/59 83/93/59 85/89/59 81/96/59
f 81/96/60 85/89/60 84/92/60 79/97/60
f 94/89/61 91/90/61 89/91/61 93/92/61
f 92/93/62 87/94/62 91/90/62 94/89/62
f 86/95/63 92/93/63 94/89/63 90/96/63
f 90/96/64 94/89/64 93/92/64 88/97/64
f 97/97/65 95/98/65 96/99/65 98/91/65
f 101/97/66 99/98/66 100/99/66 102/91/66
f 105/97/67 103/98/67 104/99/67 106/91/67
f 109/97/68 107/98/68 108/99/68 110/91/68
f 113/97/69 111/98/69 112/99/69 114/91/69
f 123/89/70 120/90/70 118/91/70 122/92/70
f 121/93/71 116/94/71 120/90/71 123/89/71
f 115/95/72 121/93/72 123/89/72 119/96/72
f 119/96/73 123/89/73 122/92/73 117/97/73
f 132/89/74 129/90/74 127/91/74 131/92/74
f 130/93/75 125/94/75 129/90/75 132/89/75
f 124/95/76 130/93/76 132/89/76 128/96/76
f 128/96/77 132/89/77 131/92/77 126/97/77
f 141/89/78 138/90/78 136/91/78 140/92/78
f 139/93/79 134/94/79 138/90/79 141/89/79
f 133/95/80 139/93/80 141/89/80 137/96/80
f 137/96/81 141/89/81 140/92/81 135/97/81
f 150/89/82 147/90/82 145/91/82 149/92/82
f 148/93/83 143/94/83 147/90/83 150/89/83
f 142/95/84 148/93/84 150/89/84 146/96/84
f 146/96/85 150/89/85 149/92/85 144/97/85
f 159/89/86 156/90/86 154/91/86 158/92/86
f 157/93/87 152/94/87 156/90/87 159/89/87
f 151/95/88 157/93/88 159/89/88 155/96/88
f 155/96/89 159/89/89 158/92/89 153/97/89
f 168/89/90 167/92/90 163/91/90 165/90/90
f 166/93/91 168/89/91 165/90/91 161/94/91
f 160/95/92 164/96/92 168/89/92 166/93/92
f 164/96/93 162/97/93 167/92/93 168/89/93
f 177/89/94 176/92/94 172/91/94 174/90/94
f 175/93/95 177/89/95 174/90/95 170/94/95
f 169/95/96 173/96/96 177/89/96 175/93/96
f 173/96/97 171/97/97 176/92/97 177/89/97
f 186/89/98 185/92/98 181/91/98 183/90/98
f 184/93/99 186/89/99 183/90/99 179/94/99
f 178/95/100 182/96/100 186/89/100 184/93/100
f 182/96/101 180/97/101 185/92/101 186/89/101
f 195/89/102 194/92/102 190/91/102 192/90/102
f 193/93/103 195/89/103 192/90/103 188/94/103
f 187/95/104 191/96/104 195/89/104 193/93/104
f 191/96/105 189/97/105 194/92/105 195/89/105
f 204/89/106 203/92/106 199/91/106 201/90/106
f 202/93/107 204/89/107 201/90/107 197/94/107
f 196/95/108 200/96/108 204/89/108 202/93/108
f 200/96/109 198/97/109 203/92/109 204/89/109
f 213/89/110 212/92/110 208/91/110 210/90/110
f 211/93/111 213/89/111 210/90/111 206/94/111
f 205/95/112 209/96/112 213/89/112 211/93/112
f 209/96/113 207/97/113 212/92/113 213/89/113
f 216/97/114 217/91/114 215/99/114 214/98/114
f 220/97/115 221/91/115 219/99/115 218/98/115
f 224/97/116 225/91/116 223/99/116 222/98/116
f 228/97/117 229/91/117 227/99/117 226/98/117
f 232/97/118 233/91/118 231/99/118 230/98/118
f 242/89/119 241/92/119 237/91/119 239/90/119
f 240/93/120 242/89/120 239/90/120 235/94/120
f 234/95/121 238/96/121 242/89/121 240/93/121
f 238/96/122 236/97/122 241/92/122 242/89/122
f 251/89/123 250/92/123 246/91/123 248/90/123
f 249/93/124 251/89/124 248/90/124 244/94/124
f 243/95/125 247/96/125 251/89/125 249/93/125
f 247/96/126 245/97/126 250/92/126 251/89/126
f 260/89/127 259/92/127 255/91/127 257/90/127
f 258/93/128 260/89/128 257/90/128 253/94/128
f 252/95/129 256/96/129 260/89/129 258/93/129
f 256/96/130 254/97/130 259/92/130 260/89/130
f 269/89/131 268/92/131 264/91/131 266/90/131
f 267/93/132 269/89/132 266/90/132 262/94/132
f 261/95/133 265/96/133 269/89/133 267/93/133
f 265/96/134 263/97/134 268/92/134 269/89/134
f 278/89/135 277/92/135 273/91/135 275/90/135
f 276/93/136 278/89/136 275/90/136 271/94/136
f 270/95/137 274/96/137 278/89/137 276/93/137
f 274/96/138 272/97/138 277/92/138 278/89/138
